<?xml version="1.0" encoding="UTF-8"?>
<svg version="1.1" xmlns="http://www.w3.org/2000/svg"
 width="65px" height="65px" viewBox="0 0 463.000000 436.000000">

<g transform="translate(0.000000,436.000000) scale(0.100000,-0.100000)"
fill="#000000" stroke="none">
<path d="M2850 4029 c-43 -23 -188 -68 -330 -103 -128 -32 -274 -49 -705 -86
-407 -34 -515 -36 -619 -11 -49 12 -97 19 -107 16 -23 -8 -46 -59 -55 -122 -7
-60 8 -99 78 -192 l41 -54 211 7 c336 10 336 10 801 148 390 116 372 112 400
94 32 -21 39 -49 25 -104 -23 -94 -90 -151 -731 -617 -83 -60 -181 -133 -218
-160 -65 -50 -93 -66 -218 -120 -86 -38 -137 -107 -199 -272 -30 -78 -30 -109
-3 -123 42 -23 116 -40 174 -40 55 0 65 4 116 43 108 81 465 405 669 608 225
224 386 355 620 504 187 119 184 117 215 176 31 60 105 229 105 240 0 17 -152
144 -206 172 -27 14 -32 13 -64 -4z"/>
<path d="M2500 3066 c-123 -35 -172 -95 -134 -168 19 -37 134 -94 218 -108 44
-7 73 -20 124 -57 36 -26 76 -55 88 -63 118 -80 274 -197 294 -221 3 -3 29
-27 58 -52 51 -45 55 -47 116 -47 71 0 151 24 161 47 3 9 1 40 -5 68 l-11 52
-112 72 c-291 187 -608 418 -634 461 -16 27 -22 30 -68 29 -27 0 -70 -6 -95
-13z"/>
<path d="M3200 2057 c-49 -19 -74 -21 -215 -20 -88 1 -200 8 -250 16 -103 16
-120 13 -212 -38 -69 -39 -93 -74 -93 -134 0 -26 7 -33 55 -56 79 -37 258 -95
314 -102 44 -5 52 -3 77 22 37 37 83 55 141 55 162 0 107 -143 -134 -352 -168
-145 -273 -249 -295 -293 -19 -36 -20 -52 -15 -170 8 -176 18 -207 86 -275
104 -103 203 -127 451 -110 194 14 352 46 475 97 121 51 236 150 261 226 22
68 15 324 -11 405 -21 62 -80 119 -178 172 -57 30 -67 32 -120 26 -69 -9 -82
-21 -91 -81 -9 -59 -2 -81 45 -131 48 -53 59 -94 59 -221 0 -163 -50 -264
-145 -293 -22 -7 -91 -14 -153 -17 -181 -9 -285 22 -369 109 -55 57 -73 102
-73 185 1 127 68 226 268 392 63 52 238 181 332 243 172 114 179 122 165 176
-9 38 -107 126 -178 162 -72 36 -119 37 -197 7z"/>
<path d="M1307 1961 c-28 -8 -370 -370 -421 -446 -132 -198 -151 -247 -150
-390 1 -83 6 -113 29 -175 66 -179 206 -306 387 -352 148 -37 303 -13 525 82
169 73 300 160 335 224 15 27 38 181 38 252 0 170 -68 309 -208 420 -58 46
-197 121 -264 143 -47 15 -47 26 -11 138 17 52 24 86 18 92 -10 9 -253 20
-278 12z m300 -337 c29 -22 36 -34 109 -186 67 -141 84 -200 84 -296 0 -107
-15 -157 -59 -191 -97 -76 -242 -122 -412 -129 -138 -5 -167 6 -247 92 -82 91
-114 201 -94 330 27 169 156 336 302 389 65 24 281 17 317 -9z"/>
</g>
</svg>
